<svg width="64" height="64" viewBox="0 0 64 64" fill="none" xmlns="http://www.w3.org/2000/svg">
<circle cx="32" cy="32" r="32" fill="white"/>
<circle cx="32" cy="32" r="31.5" stroke="#200A4D" stroke-opacity="0.2"/>
<path d="M36.6465 32.512C36.6385 31.0372 37.3055 29.924 38.6558 29.1042C37.9003 28.0232 36.759 27.4285 35.252 27.3119C33.8254 27.1994 32.2662 28.1438 31.6956 28.1438C31.0928 28.1438 29.7104 27.3521 28.6254 27.3521C26.383 27.3883 24 29.1404 24 32.7049C24 33.7578 24.1929 34.8455 24.5787 35.968C25.0931 37.4428 26.9496 41.0595 28.8866 40.9993C29.8993 40.9751 30.6146 40.2799 31.9327 40.2799C33.2106 40.2799 33.8737 40.9993 35.0029 40.9993C36.9559 40.9711 38.6357 37.6839 39.126 36.2051C36.5058 34.9714 36.6465 32.5884 36.6465 32.512ZM34.372 25.9135C35.4691 24.6115 35.3686 23.426 35.3364 23C34.368 23.0563 33.2468 23.659 32.6078 24.4025C31.9046 25.1982 31.4906 26.1827 31.5791 27.2919C32.6279 27.3722 33.5843 26.8337 34.372 25.9135Z" fill="black"/>
</svg>
