<svg width="64" height="64" viewBox="0 0 64 64" fill="none" xmlns="http://www.w3.org/2000/svg">
<circle cx="32" cy="32" r="32" fill="white"/>
<circle cx="32" cy="32" r="31.5" stroke="#200A4D" stroke-opacity="0.2"/>
<path d="M32 23C29.6131 23 27.3239 23.9482 25.636 25.636C23.9482 27.3239 23 29.6131 23 32C23 34.3869 23.9482 36.6761 25.636 38.364C27.3239 40.0518 29.6131 41 32 41C34.3869 41 36.6761 40.0518 38.364 38.364C40.0518 36.6761 41 34.3869 41 32C41 29.6131 40.0518 27.3239 38.364 25.636C36.6761 23.9482 34.3869 23 32 23Z" fill="#039BE5"/>
<path d="M33.2183 34.3855H35.5474L35.9131 32.0194H33.2179V30.7262C33.2179 29.7433 33.539 28.8718 34.4584 28.8718H35.9359V26.807C35.6763 26.7719 35.1273 26.6952 34.0899 26.6952C31.9238 26.6952 30.6538 27.8391 30.6538 30.4453V32.0194H28.427V34.3855H30.6538V40.8887C31.0948 40.955 31.5415 41 32 41C32.4145 41 32.819 40.9621 33.2183 40.9081V34.3855Z" fill="white"/>
</svg>
