<svg width="64" height="64" viewBox="0 0 64 64" fill="none" xmlns="http://www.w3.org/2000/svg">
<circle cx="32" cy="32" r="32" fill="white"/>
<circle cx="32" cy="32" r="31.5" stroke="#200A4D" stroke-opacity="0.2"/>
<path d="M39.3541 30.5311H38.75V30.5H32V33.5H36.2386C35.6203 35.2464 33.9586 36.5 32 36.5C29.5149 36.5 27.5 34.4851 27.5 32C27.5 29.5149 29.5149 27.5 32 27.5C33.1471 27.5 34.1908 27.9327 34.9854 28.6396L37.1068 26.5182C35.7673 25.2699 33.9755 24.5 32 24.5C27.8581 24.5 24.5 27.8581 24.5 32C24.5 36.1419 27.8581 39.5 32 39.5C36.1419 39.5 39.5 36.1419 39.5 32C39.5 31.4971 39.4482 31.0062 39.3541 30.5311Z" fill="#FFC107"/>
<path d="M25.3647 28.5091L27.8289 30.3163C28.4956 28.6655 30.1104 27.5 32 27.5C33.1471 27.5 34.1907 27.9328 34.9854 28.6396L37.1067 26.5183C35.7672 25.2699 33.9755 24.5 32 24.5C29.1192 24.5 26.621 26.1264 25.3647 28.5091Z" fill="#FF3D00"/>
<path d="M32 39.5C33.9372 39.5 35.6975 38.7586 37.0284 37.553L34.7071 35.5888C33.9541 36.1591 33.0181 36.5 32 36.5C30.0492 36.5 28.3929 35.2561 27.7689 33.5203L25.3231 35.4046C26.5644 37.8335 29.0851 39.5 32 39.5Z" fill="#4CAF50"/>
<path d="M39.3541 30.5311H38.75V30.5H32V33.5H36.2386C35.9416 34.3389 35.402 35.0622 34.706 35.5891C34.7064 35.5887 34.7067 35.5887 34.7071 35.5884L37.0284 37.5526C36.8641 37.7019 39.5 35.75 39.5 32C39.5 31.4971 39.4482 31.0063 39.3541 30.5311Z" fill="#1976D2"/>
</svg>
